<svg width="100" height="88" viewBox="0 0 100 88" fill="none" xmlns="http://www.w3.org/2000/svg">
<path d="M95.1573 0.861572H4.84266C2.16782 0.861572 0 3.02963 0 5.70423V62.3634C0 65.038 2.16782 67.206 4.84266 67.206H38.6197V78.1795H25.476C23.006 78.1795 20.9966 80.1889 20.9966 82.659C20.9966 85.1289 23.006 87.1384 25.476 87.1384H74.524C76.994 87.1384 79.0034 85.1289 79.0034 82.659C79.0034 80.1889 76.994 78.1795 74.524 78.1795H61.3803V67.206H95.1573C97.8322 67.206 100 65.038 100 62.3634V5.70423C100 3.02963 97.8322 0.861572 95.1573 0.861572ZM92.736 59.942H7.26399V8.12556H92.736V59.942Z" fill="white"/>
<path d="M61.9005 34.56C61.9605 34.06 62.0005 33.54 62.0005 33C62.0005 32.46 61.9605 31.94 61.8805 31.44L65.2605 28.8C65.5605 28.56 65.6405 28.12 65.4605 27.78L62.2605 22.24C62.0605 21.88 61.6405 21.76 61.2805 21.88L57.3005 23.48C56.4605 22.84 55.5805 22.32 54.6005 21.92L54.0005 17.68C53.9405 17.28 53.6005 17 53.2005 17H46.8005C46.4005 17 46.0805 17.28 46.0205 17.68L45.4205 21.92C44.4405 22.32 43.5405 22.86 42.7205 23.48L38.7405 21.88C38.3805 21.74 37.9605 21.88 37.7605 22.24L34.5605 27.78C34.3605 28.14 34.4405 28.56 34.7605 28.8L38.1405 31.44C38.0605 31.94 38.0005 32.48 38.0005 33C38.0005 33.52 38.0405 34.06 38.1205 34.56L34.7405 37.2C34.4405 37.44 34.3605 37.88 34.5405 38.22L37.7405 43.76C37.9405 44.12 38.3605 44.24 38.7205 44.12L42.7005 42.52C43.5405 43.16 44.4205 43.68 45.4005 44.08L46.0005 48.32C46.0805 48.72 46.4005 49 46.8005 49H53.2005C53.6005 49 53.9405 48.72 53.9805 48.32L54.5805 44.08C55.5605 43.68 56.4605 43.14 57.2805 42.52L61.2605 44.12C61.6205 44.26 62.0405 44.12 62.2405 43.76L65.4405 38.22C65.6405 37.86 65.5605 37.44 65.2405 37.2L61.9005 34.56ZM50.0005 39C46.7005 39 44.0005 36.3 44.0005 33C44.0005 29.7 46.7005 27 50.0005 27C53.3005 27 56.0005 29.7 56.0005 33C56.0005 36.3 53.3005 39 50.0005 39Z" fill="white"/>
</svg>
