<svg width="115" height="80" viewBox="0 0 115 80" fill="none" xmlns="http://www.w3.org/2000/svg">
<path d="M57.4997 0.9375C31.458 0.9375 9.21842 17.1354 0.208008 40C9.21842 62.8646 31.458 79.0625 57.4997 79.0625C83.5413 79.0625 105.781 62.8646 114.791 40C105.781 17.1354 83.5413 0.9375 57.4997 0.9375ZM57.4997 66.0417C43.1247 66.0417 31.458 54.375 31.458 40C31.458 25.625 43.1247 13.9583 57.4997 13.9583C71.8747 13.9583 83.5413 25.625 83.5413 40C83.5413 54.375 71.8747 66.0417 57.4997 66.0417ZM57.4997 24.375C48.8538 24.375 41.8747 31.3542 41.8747 40C41.8747 48.6458 48.8538 55.625 57.4997 55.625C66.1455 55.625 73.1247 48.6458 73.1247 40C73.1247 31.3542 66.1455 24.375 57.4997 24.375Z" fill="white"/>
</svg>
