<svg width="104" height="100" viewBox="0 0 104 100" fill="none" xmlns="http://www.w3.org/2000/svg">
<g clip-path="url(#clip0_31_0)">
<path d="M18.2289 87.5909C19.3509 87.5909 20.2628 86.6866 20.2628 85.57V50.7267C20.2628 49.6156 19.3511 48.7062 18.2289 48.7062H10.4702C9.3409 48.7062 8.43652 49.6156 8.43652 50.7267V85.57C8.43652 86.6866 9.34069 87.5909 10.4702 87.5909H18.2289Z" fill="white"/>
<path d="M100.753 90.9829H3.32051C2.21172 90.9829 1.29395 91.8883 1.29395 93.007V98.2585C1.29395 99.3807 2.21172 100.283 3.32051 100.283H100.753C101.875 100.283 102.774 99.3811 102.774 98.2585V93.007C102.774 91.8881 101.875 90.9829 100.753 90.9829Z" fill="white"/>
<path d="M43.3674 87.5909C44.478 87.5909 45.3885 86.6866 45.3885 85.57V50.7267C45.3885 49.6156 44.478 48.7062 43.3674 48.7062H35.589C34.4794 48.7062 33.5752 49.6156 33.5752 50.7267V85.57C33.5752 86.6866 34.4794 87.5909 35.589 87.5909H43.3674Z" fill="white"/>
<path d="M93.6166 87.5909C94.7273 87.5909 95.643 86.6866 95.643 85.57V50.7267C95.643 49.6156 94.7269 48.7062 93.6166 48.7062H85.837C84.7225 48.7062 83.8184 49.6156 83.8184 50.7267V85.57C83.8184 86.6866 84.7227 87.5909 85.837 87.5909H93.6166Z" fill="white"/>
<path d="M101.365 37.3152L59.834 2.94029C55.5418 -0.60351 48.5311 -0.60351 44.2387 2.94029L2.71632 37.3152C-1.58224 40.8758 -0.528459 43.771 5.04211 43.771H99.0424C104.607 43.771 105.655 40.8758 101.365 37.3152ZM52.0368 35.408C47.6816 35.408 44.1516 31.87 44.1516 27.5167C44.1516 23.1625 47.6816 19.6374 52.0368 19.6374C56.4027 19.6374 59.9224 23.1625 59.9224 27.5167C59.9224 31.87 56.4027 35.408 52.0368 35.408Z" fill="white"/>
<path d="M68.4858 87.5909C69.608 87.5909 70.5124 86.6866 70.5124 85.57V50.7267C70.5124 49.6156 69.608 48.7062 68.4858 48.7062H60.7202C59.5958 48.7062 58.6914 49.6156 58.6914 50.7267V85.57C58.6914 86.6866 59.5958 87.5909 60.7202 87.5909H68.4858Z" fill="white"/>
</g>
<defs>
<clipPath id="clip0_31_0">
<rect width="103.937" height="100" fill="white"/>
</clipPath>
</defs>
</svg>
