<svg width="124" height="100" viewBox="0 0 124 100" fill="none" xmlns="http://www.w3.org/2000/svg">
<path d="M110.784 65.3186C110.784 65.3186 96.6912 99.0196 61.7647 99.0196C26.8383 99.0196 12.7451 65.3186 12.7451 65.3186C12.7451 65.3186 37.8677 71.4461 61.152 71.4461C84.4363 71.4461 110.784 65.3186 110.784 65.3186Z" fill="white"/>
<path d="M118.751 28.5539C93.0154 20.5882 72.7948 0.980408 61.7654 0.980408C50.736 0.980408 30.5154 20.5882 4.78013 28.5539C0.490911 29.7794 -1.34733 34.6814 1.10366 38.3579C6.61836 45.7108 12.7458 46.3235 12.7458 54.902C12.7458 54.902 37.2556 61.0294 61.7654 61.0294C86.2752 61.0294 110.785 54.902 110.785 54.902C110.785 46.3235 116.912 45.7108 121.814 37.7451C124.265 34.6814 122.427 29.7794 118.751 28.5539ZM61.7654 50C55.0252 50 49.5105 38.3579 49.5105 31.6177C49.5105 31.6177 55.0252 25.4902 61.7654 25.4902C68.5056 25.4902 74.0203 31.6177 74.0203 31.6177C74.0203 38.3579 68.5056 50 61.7654 50Z" fill="white"/>
</svg>
