<svg width="100" height="100" viewBox="0 0 100 100" fill="none" xmlns="http://www.w3.org/2000/svg">
<path d="M95.1573 6.86157H4.84266C2.16782 6.86157 0 9.02963 0 11.7042V68.3634C0 71.038 2.16782 73.206 4.84266 73.206H38.6197V84.1795H25.476C23.006 84.1795 20.9966 86.1889 20.9966 88.659C20.9966 91.1289 23.006 93.1384 25.476 93.1384H74.524C76.994 93.1384 79.0034 91.1289 79.0034 88.659C79.0034 86.1889 76.994 84.1795 74.524 84.1795H61.3803V73.206H95.1573C97.8322 73.206 100 71.038 100 68.3634V11.7042C100 9.02963 97.8322 6.86157 95.1573 6.86157ZM92.736 65.942H7.26399V14.1256H92.736V65.942Z" fill="white"/>
<path d="M22.9037 42.7697L38.1785 49.8729C38.5734 50.0557 38.9937 50.1484 39.4284 50.1484C39.9945 50.1484 40.546 49.9876 41.0257 49.6826C41.8848 49.1336 42.3976 48.1983 42.3976 47.1801V47.1021C42.3976 45.9518 41.7233 44.8951 40.6795 44.4099L31.1261 39.9716L40.6797 35.5323C41.7233 35.0471 42.3976 33.9902 42.3976 32.8403V32.763C42.3976 31.7434 41.8846 30.8081 41.0259 30.2608C40.5509 29.9572 39.9976 29.7969 39.4264 29.7969C38.9959 29.7969 38.5637 29.8916 38.177 30.0712L22.9035 37.1735C21.8604 37.659 21.1865 38.7156 21.1865 39.8653V40.0779C21.1863 41.2261 21.8599 42.2825 22.9037 42.7697Z" fill="white"/>
<path d="M42.5334 57.2376C43.0906 58.0001 43.9867 58.4553 44.9308 58.4553H45.0071C46.303 58.4553 47.4386 57.6257 47.8332 56.3933L57.8956 25.2162C58.1842 24.3162 58.0239 23.3232 57.4667 22.5591C56.9096 21.7966 56.0135 21.3411 55.0694 21.3411H54.9933C53.697 21.3411 52.5604 22.1707 52.1655 23.4031L42.1019 54.5829C41.8157 55.4836 41.977 56.4756 42.5334 57.2376Z" fill="white"/>
<path d="M57.6028 32.84C57.6028 33.9892 58.2764 35.0459 59.3207 35.533L68.8741 39.9713L59.3207 44.4096C58.2769 44.8949 57.6025 45.9515 57.6025 47.1019V47.1799C57.6025 48.1981 58.1151 49.1334 58.9752 49.6826C59.4532 49.9872 60.0052 50.1482 60.5721 50.1482C61.006 50.1482 61.4261 50.0555 61.8236 49.8717L77.0977 42.7687C78.1405 42.2823 78.8141 41.2258 78.8141 40.0774V39.8648C78.8141 38.7152 78.1403 37.6585 77.0967 37.173L61.8229 30.0703C61.4377 29.8913 61.0062 29.7964 60.5755 29.7964C60.0045 29.7964 59.451 29.9567 58.9764 30.2594C58.1159 30.8076 57.6028 31.7429 57.6028 32.7625V32.84Z" fill="white"/>
</svg>
